<?xml version="1.0" encoding="UTF-8" standalone="no"?>
<!DOCTYPE svg PUBLIC "-//W3C//DTD SVG 1.1//EN" "http://www.w3.org/Graphics/SVG/1.1/DTD/svg11.dtd">
<svg width="100%" height="100%" viewBox="0 0 48 48" version="1.1" xmlns="http://www.w3.org/2000/svg" xmlns:xlink="http://www.w3.org/1999/xlink" xml:space="preserve" xmlns:serif="http://www.serif.com/" style="fill-rule:evenodd;clip-rule:evenodd;stroke-linejoin:round;stroke-miterlimit:2;">
    <rect id="Artboard1" x="0" y="0" width="48" height="48" style="fill:none;"/>
    <g id="Artboard11" serif:id="Artboard1">
        <g transform="matrix(1.03383,0,0,1.10526,14.9098,4.10526)">
            <path d="M27.451,4.5L27.451,13.5C27.451,16.733 24.645,19.357 21.189,19.357L2.811,19.357C-0.645,19.357 -3.451,16.733 -3.451,13.5L-3.451,4.5C-3.451,1.267 -0.645,-1.357 2.811,-1.357L21.189,-1.357C24.645,-1.357 27.451,1.267 27.451,4.5ZM24.549,4.5C24.549,2.765 23.044,1.357 21.189,1.357L2.811,1.357C0.956,1.357 -0.549,2.765 -0.549,4.5L-0.549,13.5C-0.549,15.235 0.956,16.643 2.811,16.643L21.189,16.643C23.044,16.643 24.549,15.235 24.549,13.5L24.549,4.5Z"/>
        </g>
        <g transform="matrix(1.10526,0,0,1.05,-0.868421,-1.2)">
            <path d="M17.643,24C17.643,23.212 18.251,22.571 19,22.571C19.749,22.571 20.357,23.212 20.357,24L20.357,42.132L24.956,40.818L30.719,23.527C30.967,22.783 31.743,22.391 32.449,22.652C33.156,22.913 33.529,23.729 33.281,24.473L27.281,42.473C27.133,42.917 26.787,43.255 26.356,43.379L19.356,45.379C18.948,45.495 18.511,45.405 18.176,45.135C17.84,44.864 17.643,44.445 17.643,44L17.643,24Z"/>
        </g>
        <g transform="matrix(2.79306,0,0,1.96645,-24.7799,-36.4777)">
            <path d="M15.793,34.296C16.066,34.134 16.381,34.317 16.496,34.706C16.61,35.094 16.481,35.542 16.207,35.704C16.207,35.704 13.405,37.367 13.405,37.367L16.283,39.042C16.558,39.202 16.689,39.647 16.577,40.037C16.464,40.427 16.15,40.613 15.876,40.454L11.796,38.08C11.595,37.963 11.464,37.685 11.463,37.377C11.462,37.068 11.592,36.789 11.793,36.67L15.793,34.296Z"/>
        </g>
        <g transform="matrix(1.10526,0,0,1.32749,-0.421053,-12.7646)">
            <path d="M9.643,33C9.643,32.376 10.251,31.87 11,31.87C11.749,31.87 12.357,32.376 12.357,33L12.357,42C12.357,42.624 11.749,43.13 11,43.13C10.251,43.13 9.643,42.624 9.643,42L9.643,33Z"/>
        </g>
        <g transform="matrix(0.987616,0,0,1.10526,4.60062,-1.42105)">
            <path d="M6,15.357C5.162,15.357 4.481,14.749 4.481,14C4.481,13.251 5.162,12.643 6,12.643L40,12.643C40.838,12.643 41.519,13.251 41.519,14C41.519,14.749 40.838,15.357 40,15.357L6,15.357Z"/>
        </g>
    </g>
</svg>
