<?xml version="1.0" encoding="utf-8"?>
<!-- Generator: Adobe Illustrator 22.1.0, SVG Export Plug-In . SVG Version: 6.00 Build 0)  -->
<!DOCTYPE svg PUBLIC "-//W3C//DTD SVG 1.1//EN" "http://www.w3.org/Graphics/SVG/1.1/DTD/svg11.dtd">
<svg version="1.1" id="Layer_1" xmlns="http://www.w3.org/2000/svg" xmlns:xlink="http://www.w3.org/1999/xlink" x="0px" y="0px"
	 viewBox="0 0 94.5 36" style="enable-background:new 0 0 94.5 36;" xml:space="preserve">
<style type="text/css">
	.st0{fill:#FFFFFF;}
</style>
<title>Asset 1</title>
<g id="Layer_2_1_">
	<g id="Layer_1-2">
		<path class="st0" d="M17.9,7.6C12.2,7.6,7.5,12.2,7.5,18s4.7,10.4,10.4,10.4S28.4,23.8,28.4,18l0,0C28.4,12.2,23.7,7.6,17.9,7.6
			C18,7.6,17.9,7.6,17.9,7.6z M17,11.6l1.5,0.3l-0.3,1.5l1,0.2l0.3-1.5l1.5,0.3L20.8,14c0.2,0.1,0.4,0.2,0.6,0.3
			c0.4,0.2,0.7,0.6,0.9,1c0.2,0.4,0.2,0.8,0.1,1.2c-0.1,0.3-0.2,0.6-0.4,0.8c-0.2,0.2-0.4,0.5-0.7,0.6c-0.3,0.2-0.6,0.3-1,0.3
			c0.3,0.1,0.6,0.3,0.9,0.5c0.3,0.2,0.5,0.5,0.6,0.9C22,20,22,20.4,22,20.8c-0.1,0.5-0.4,0.9-0.7,1.2c-0.4,0.4-0.9,0.6-1.4,0.7
			c-0.2,0-0.5,0.1-0.7,0.1l-0.3,1.6l-1.5-0.3l0.3-1.5c0,0-0.1,0-0.1,0l-0.9-0.2l-0.3,1.5l-1.5-0.3l0.3-1.5l-2.3-0.4l0.2-1.3l0.4,0.1
			c0.2,0,0.3,0,0.5,0c0.1,0,0.1-0.1,0.2-0.1c0.1-0.2,0.1-0.3,0.1-0.5l0.9-5c0-0.2,0-0.3,0-0.5c0-0.1-0.1-0.2-0.1-0.2
			c-0.1-0.1-0.3-0.1-0.5-0.2l-0.4-0.1l0.2-1.2l2.3,0.4L17,11.6z M17.4,14.8L17,17l1,0.2c0.4,0.1,0.8,0.1,1.2,0.1
			c0.2,0,0.5-0.1,0.6-0.3c0.2-0.2,0.3-0.4,0.3-0.6c0-0.2,0-0.4-0.1-0.6c-0.1-0.2-0.3-0.4-0.5-0.4c-0.4-0.2-0.8-0.3-1.2-0.3
			L17.4,14.8L17.4,14.8z M16.8,18.3l-0.4,1.9c0,0.2-0.1,0.3-0.1,0.5c0,0.1,0,0.1,0.1,0.1c0.1,0.1,0.3,0.1,0.4,0.1l0.6,0.1
			c0.3,0.1,0.7,0.1,1,0.1c0.3,0,0.5-0.1,0.7-0.3c0.4-0.4,0.5-1,0.4-1.5c-0.1-0.2-0.3-0.4-0.5-0.5c-0.3-0.2-0.7-0.3-1.1-0.4
			L16.8,18.3L16.8,18.3z"/>
		<path class="st0" d="M33.7,7.6l-1.8,9.2c-0.1,0.5-0.2,1.1-0.2,1.6c0,1.6,1.1,2.5,3.2,2.5c4.1,0,6-3.4,6-6.3c0-1.6-0.8-3.1-2.7-3.1
			c-1.1,0-2.1,0.5-2.8,1.3l0,0l1.1-5.2L33.7,7.6z M45.2,7.7c-0.8,0-1.5,0.7-1.5,1.5c0,0,0,0,0,0c0,0.7,0.5,1.3,1.2,1.3
			c0.1,0,0.1,0,0.2,0c0.8,0,1.5-0.6,1.5-1.4c0,0,0-0.1,0-0.1c0-0.7-0.5-1.3-1.2-1.3C45.3,7.7,45.2,7.7,45.2,7.7z M74.7,7.7
			c-0.8,0-1.5,0.7-1.5,1.5c0,0,0,0,0,0c0,0.7,0.5,1.3,1.2,1.3c0,0,0.1,0,0.1,0c0.8,0,1.5-0.6,1.5-1.4c0,0,0-0.1,0-0.1
			c0-0.7-0.5-1.3-1.2-1.3C74.8,7.7,74.7,7.7,74.7,7.7z M51.6,9.1l-2.7,0.6l-0.4,1.9h-1.2l-0.4,2h1.1l-0.7,3.6
			c-0.1,0.6-0.2,1.2-0.2,1.7c0,1.1,0.8,1.9,2.4,1.9c0.5,0,1.1-0.1,1.6-0.2l0.3-2.1c-0.2,0-0.5,0-0.7,0c-0.4,0.1-0.7-0.2-0.8-0.6
			c0-0.1,0-0.1,0-0.2c0-0.4,0.1-0.8,0.2-1.1l0.6-3.1h1.9l0.4-2h-1.9L51.6,9.1z M59,11.4c-3.1-0.1-5.8,2.3-5.9,5.4c0,0.1,0,0.2,0,0.3
			c-0.1,1.9,1.4,3.6,3.3,3.7c0.2,0,0.3,0,0.5,0c0.9,0,1.8-0.1,2.6-0.5v-2c-0.6,0.2-1.2,0.4-1.8,0.4c-0.9,0-1.7-0.7-1.8-1.6
			c0-0.1,0-0.2,0-0.3c-0.1-1.7,1.2-3.2,3-3.3c0.4,0,0.9,0.1,1.3,0.2l0.6-2C60.3,11.6,59.6,11.5,59,11.4z M66.4,11.4
			c-3,0-5.4,2.5-5.4,5.5c0,0.1,0,0.2,0,0.3c-0.1,2,1.4,3.6,3.4,3.7c0.1,0,0.3,0,0.4,0c3,0,5.4-2.4,5.4-5.4c0-0.1,0-0.2,0-0.4
			c0.1-2-1.5-3.7-3.5-3.7C66.7,11.4,66.5,11.4,66.4,11.4L66.4,11.4z M83,11.4c-1.3,0-2.5,0.6-3.2,1.7l0,0l0.2-1.5h-2.4
			c-0.1,0.8-0.3,1.8-0.5,2.9L76,20.7h2.7l0.8-4c0.4-2,1.4-3.1,2.3-3.1c0.7,0,0.9,0.4,0.9,1.1c0,0.3,0,0.7-0.1,1l-0.9,5h2.7l1-5.3
			c0.1-0.5,0.1-1,0.1-1.5c0.2-1.2-0.7-2.3-1.9-2.4C83.3,11.4,83.2,11.4,83,11.4L83,11.4z M43.3,11.6l-1.7,9.1h2.7l1.8-9.1H43.3z
			 M72.7,11.6L71,20.7h2.7l1.7-9.1L72.7,11.6z M66,13.5c1.1,0,1.4,0.9,1.4,1.7c0,1.6-0.8,3.7-2.3,3.7c-0.9,0-1.4-0.7-1.4-1.8
			C63.7,15.7,64.5,13.5,66,13.5z M36.8,13.6c0.8,0,1.2,0.7,1.2,1.6c0,1.6-1.1,3.7-2.7,3.7c-0.5,0-1-0.4-1-0.9c0,0,0-0.1,0-0.1
			c0-0.3,0-0.7,0.1-1l0.2-0.8C34.9,14.6,35.9,13.6,36.8,13.6L36.8,13.6z"/>
		<path class="st0" d="M34.1,28.4h-0.6L33,27.3h-1.7l-0.4,1.1h-0.6l1.6-4.1h0.5L34.1,28.4z M32.9,26.8L32.2,25l-0.7,1.8L32.9,26.8z"
			/>
		<path class="st0" d="M38.7,27.8c-0.4,0.4-0.9,0.6-1.5,0.6c-1.2-0.1-2-1.1-2-2.2c0.1-1,0.9-1.9,2-2c0.5,0,1.1,0.2,1.5,0.5l-0.2,0.5
			c-0.3-0.3-0.7-0.5-1.2-0.5c-0.9,0.1-1.5,0.8-1.5,1.7c0.1,0.8,0.7,1.4,1.5,1.5c0.5,0,0.9-0.2,1.2-0.5L38.7,27.8z"/>
		<path class="st0" d="M43.4,27.8c-0.4,0.4-0.9,0.6-1.5,0.6c-1.2,0-2.1-1-2.1-2.1c0-1.2,1-2.1,2.1-2.1c0.5,0,1,0.2,1.4,0.5l-0.2,0.5
			c-0.3-0.3-0.7-0.5-1.2-0.5c-0.9,0.1-1.5,0.8-1.5,1.7c0.1,0.8,0.7,1.4,1.5,1.5c0.5,0,0.9-0.2,1.2-0.5L43.4,27.8z"/>
		<path class="st0" d="M47.4,28.4H45v-4.1h2.4v0.5h-1.8V26h1.7v0.5h-1.7v1.4h1.9V28.4z"/>
		<path class="st0" d="M51.2,26.3c-0.3,0.2-0.6,0.3-1,0.3h-0.6v1.7H49v-4.1h1.1c0.4,0,0.7,0.1,1,0.3c0.3,0.2,0.4,0.5,0.4,0.9
			C51.6,25.8,51.4,26.1,51.2,26.3z M50.7,24.9c-0.2-0.1-0.4-0.2-0.6-0.2h-0.5v1.4h0.5c0.2,0,0.4,0,0.6-0.1c0.2-0.1,0.2-0.3,0.2-0.5
			C51,25.3,50.9,25.1,50.7,24.9z"/>
		<path class="st0" d="M55.6,24.8h-1.1v3.6h-0.6v-3.6h-1.2v-0.5h2.9V24.8z"/>
		<path class="st0" d="M59.4,28.4H57v-4.1h2.4v0.5h-1.8V26h1.7v0.5h-1.7v1.4h1.8V28.4z"/>
		<path class="st0" d="M63.8,27.8c-0.4,0.4-1,0.5-1.5,0.5h-1.2v-4.1h1.2c0.6,0,1.1,0.2,1.5,0.5C64.6,25.7,64.7,27,63.8,27.8
			C63.8,27.8,63.8,27.8,63.8,27.8z M63.4,25.2c-0.3-0.3-0.7-0.4-1.1-0.4h-0.7v3.1h0.7c0.4,0,0.8-0.1,1.1-0.4
			c0.3-0.3,0.5-0.7,0.5-1.2C63.9,25.9,63.7,25.5,63.4,25.2z"/>
		<path class="st0" d="M71.5,28.4h-0.6v-1.9h-2.2v1.9h-0.6v-4.1h0.6V26h2.2v-1.7h0.6V28.4z"/>
		<path class="st0" d="M75.8,28.4h-2.4v-4.1h2.4v0.5h-1.8V26h1.7v0.5h-1.7v1.4h1.9V28.4z"/>
		<path class="st0" d="M80.2,28.4h-0.7l-1.1-1.8H78v1.8h-0.6v-4.1h1.2c0.4,0,0.7,0.1,1,0.3c0.5,0.4,0.6,1.1,0.2,1.6
			c-0.2,0.2-0.4,0.4-0.7,0.4L80.2,28.4z M79.1,24.9c-0.2-0.1-0.4-0.2-0.7-0.1H78v1.4h0.4c0.2,0,0.5,0,0.7-0.1
			c0.2-0.1,0.3-0.3,0.3-0.5C79.4,25.2,79.3,25,79.1,24.9z"/>
		<path class="st0" d="M84,28.4h-2.5v-4.1h2.4v0.5h-1.8V26h1.7v0.5h-1.7v1.4H84V28.4z"/>
	</g>
</g>
<g>
	<defs>
		<path id="SVGID_1_" d="M85.8,35.7H8.6c-4.6,0-8.4-3.8-8.4-8.4V8.7c0-4.6,3.8-8.4,8.4-8.4h77.2c4.6,0,8.4,3.8,8.4,8.4v18.6
			C94.2,31.9,90.4,35.7,85.8,35.7z M85.8,1.3H8.6c-4.1,0-7.4,3.3-7.4,7.4v18.6c0,4.1,3.3,7.4,7.4,7.4h77.1h0c4.1,0,7.4-3.3,7.4-7.4
			V8.7C93.1,4.6,89.8,1.3,85.8,1.3z"/>
	</defs>
	<use xlink:href="#SVGID_1_"  style="overflow:visible;fill:#FFFFFF;"/>
	<clipPath id="SVGID_2_">
		<use xlink:href="#SVGID_1_"  style="overflow:visible;"/>
	</clipPath>
</g>
</svg>
